<?xml version="1.0" encoding="UTF-8"?>
<!DOCTYPE svg PUBLIC "-//W3C//DTD SVG 1.1//EN" "http://www.w3.org/Graphics/SVG/1.1/DTD/svg11.dtd">
<svg version="1.1" xmlns="http://www.w3.org/2000/svg" xmlns:xlink="http://www.w3.org/1999/xlink" x="0" y="0" width="360" height="360" viewBox="0, 0, 360, 360">
  <g id="Background">
    <rect x="0" y="0" width="360" height="360" fill="#FFFFFF"/>
  </g>
  <g id="Background"/>
  <g id="Layer_1" opacity="0.049">
    <path d="M209.22,194.252 C208.685,193.832 207.927,193.652 207.053,193.738 C203.84,194.055 201.499,196.795 201.755,199.388 C201.915,201.009 203.265,201.821 204.872,201.663 C207.492,201.405 210.457,198.567 210.205,196.01 L208,173.643 L207.197,173.723 z" fill-opacity="0" stroke="#000000" stroke-width="1" opacity="0.69"/>
    <path d="M172.426,21.77 C170.885,19.74 169.551,17.653 168.876,15.101 C168.764,14.676 168.536,14.517 168.047,14.565 C167.908,14.579 167.81,14.661 167.793,14.844 L167.796,14.88 C167.8,14.916 167.803,14.952 167.81,15.025 L168.435,21.363 L169.781,35.014 C169.246,34.594 168.487,34.414 167.614,34.5 C164.4,34.817 162.056,37.521 162.316,40.15 C162.472,41.735 163.825,42.583 165.432,42.425 C168.052,42.166 171.017,39.328 170.765,36.771 L169.271,21.608 C170.977,22.458 173.228,25.255 174.227,27.157 C174.7,28.019 175.097,29.544 175.253,31.129 C175.374,32.353 175.323,33.631 174.99,34.9 C174.969,35.048 174.948,35.195 174.959,35.303 C175.002,35.736 175.271,35.964 175.456,36.054 L175.495,36.087 C175.739,36.063 176.043,35.924 176.14,35.478 C176.14,35.478 176.548,32.819 176.342,30.73 C176.009,27.345 174.334,24.31 172.426,21.77 z" fill-opacity="0" stroke="#000000" stroke-width="1" opacity="0.94"/>
    <path d="M169.78,263.223 C169.249,262.839 168.487,262.623 167.613,262.709 C164.4,263.026 162.059,265.766 162.315,268.359 C162.475,269.98 163.825,270.793 165.432,270.634 C168.052,270.376 170.982,267.541 170.768,265.017 L169.057,247.657 L168.254,247.736 z M177.616,246.813 L168.673,247.695 L169.007,251.08 L177.949,250.199 z M176.603,246.913 L176.936,250.299 L185.111,249.493 L186.303,261.594 C185.737,261.214 185.01,260.995 184.137,261.081 C180.923,261.398 178.548,264.141 178.803,266.734 C178.963,268.355 180.313,269.167 181.92,269.009 C184.54,268.751 187.505,265.913 187.257,263.392 L185.545,246.032 z" fill-opacity="0" stroke="#000000" stroke-width="1" opacity="0.54"/>
    <path d="M267.548,232.257 C267.017,231.873 266.255,231.657 265.382,231.743 C262.168,232.06 259.828,234.8 260.083,237.393 C260.243,239.014 261.593,239.826 263.2,239.668 C265.82,239.41 268.75,236.575 268.537,234.05 L266.825,216.69 L266.022,216.77 z M274.406,215.943 L274.739,219.329 L282.914,218.523 L283.077,220.18 L274.903,220.986 L275.236,224.371 L283.411,223.565 L284.103,230.589 C283.536,230.208 282.778,230.028 281.94,230.111 C278.691,230.431 276.347,233.135 276.606,235.764 C276.763,237.349 278.112,238.161 279.719,238.003 C282.339,237.745 285.27,234.91 285.056,232.386 L283.348,215.062 z M275.706,220.906 L266.729,221.791 L267.062,225.177 L276.04,224.292 z M275.209,215.864 L266.231,216.749 L266.565,220.135 L275.543,219.25 z" fill-opacity="0" stroke="#000000" stroke-width="1" opacity="0.5"/>
    <path d="M104.967,273.917 C104.967,273.917 104.616,271.086 104.429,269.193 C104.354,268.436 104.316,267.867 104.334,267.674 C104.385,267.096 104.981,265.986 105.32,265.571 C105.528,265.295 105.77,265.176 105.985,265.155 C106.253,265.128 106.505,265.295 106.7,265.626 C107.019,266.104 107.261,266.908 107.348,267.791 C107.432,268.643 107.406,269.664 107.18,270.674 C106.933,271.845 106.312,273.434 105.596,274.429 C105.498,274.534 105.412,274.574 105.34,274.581 C105.089,274.606 104.989,274.138 104.967,273.917 z M104.449,278.204 C104.539,278.386 104.635,278.44 104.707,278.433 C104.796,278.425 104.859,278.323 104.859,278.323 C105.584,277.423 106.105,276.098 106.704,275.211 C108.798,272.043 109.357,269.09 109.143,266.914 C108.875,264.201 107.525,262.614 106.276,262.61 C106.079,262.63 105.903,262.679 105.716,262.793 C105.444,262.979 105.141,263.2 104.867,263.545 C104.731,263.813 104.485,264.252 104.341,264.266 C104.288,264.271 104.27,264.273 104.213,264.247 C104,264.108 103.862,263.804 103.827,263.457 C103.761,262.412 102.803,251.042 102.709,250.096 C102.66,249.591 102.381,249.332 102.112,249.358 C101.736,249.396 101.353,249.911 101.419,250.764 C101.419,250.764 104.187,277.752 104.449,278.204 z" fill-opacity="0" stroke="#000000" stroke-width="1" opacity="0.7"/>
    <path d="M262.101,165.484 C262.045,164.917 263.355,163.705 263.928,163.648 C264.053,163.636 264.131,163.692 264.147,163.85 L264.564,168.076 C264.635,168.801 263.403,169.878 262.829,169.935 C262.668,169.951 262.533,169.868 262.518,169.711 z M263.948,159.443 C263.912,159.446 263.879,159.481 263.861,159.483 C263.861,159.483 262.468,160.576 261.858,160.636 C261.715,160.65 261.622,160.627 261.604,160.438 L260.929,153.594 C260.901,153.31 260.739,153.135 260.596,153.149 L260.309,153.177 C260.13,153.195 260.041,153.395 260.069,153.678 L262.152,174.81 C262.177,175.063 262.258,175.15 262.366,175.14 C262.401,175.136 262.434,175.101 262.47,175.097 C262.47,175.097 262.506,175.094 262.521,175.061 C262.836,174.775 264.03,173.67 264.71,173.603 C264.943,173.58 265.117,173.69 265.148,174.005 L265.751,180.124 C265.779,180.408 265.923,180.585 266.084,180.569 L266.389,180.539 C266.532,180.525 266.639,180.323 266.611,180.039 L264.581,159.444 C264.562,159.255 264.46,159.137 264.371,159.146 C264.353,159.148 264.299,159.153 264.284,159.186 z" fill-opacity="0" stroke="#000000" stroke-width="1" opacity="0.61"/>
    <path d="M278.169,294.652 C278.125,295.485 277.095,296.414 276.575,296.466 C276.432,296.48 276.3,296.429 276.27,296.305 C276.201,296.152 276.093,295.239 275.996,294.261 C275.872,293 275.747,291.547 275.769,291.227 C275.755,290.527 276.725,289.54 277.316,289.482 C277.477,289.466 277.63,289.546 277.681,289.701 C277.757,289.916 277.91,290.92 278.019,292.024 C278.128,293.128 278.189,294.3 278.169,294.652 z M279.126,287.838 C279.274,287.696 279.366,287.337 279.344,287.116 L279.055,284.183 C279.036,283.994 278.952,283.875 278.862,283.884 C278.809,283.889 278.791,283.891 278.74,283.928 C278.74,283.928 278.309,284.32 278.204,284.362 C278.025,284.38 277.842,284.175 277.811,283.86 L277.317,278.845 C277.295,278.624 277.148,278.416 276.951,278.435 C276.718,278.458 276.596,278.693 276.618,278.914 L277.143,284.244 C277.166,284.656 277.147,285.199 276.957,285.473 C276.716,285.783 275.984,286.428 275.608,286.657 C275.393,286.678 275.272,286.18 275.241,285.865 L274.756,280.944 C274.731,280.692 274.548,280.487 274.387,280.503 C274.154,280.526 274.032,280.761 274.057,281.013 L274.601,286.533 C274.657,287.101 274.554,287.525 274.423,287.665 C274.31,287.804 273.876,288.165 273.876,288.165 C273.706,288.277 273.63,288.603 273.654,288.855 L273.944,291.789 C273.965,292.009 274.049,292.129 274.157,292.118 C274.193,292.114 274.225,292.079 274.261,292.076 C274.261,292.076 274.577,291.79 274.723,291.616 C274.74,291.615 274.773,291.58 274.791,291.578 C274.952,291.562 275.136,291.958 275.167,292.273 L275.568,296.342 C275.612,296.783 275.524,297.174 275.411,297.313 C275.274,297.39 274.827,297.816 274.827,297.816 C274.654,297.897 274.581,298.254 274.606,298.507 L274.892,301.408 C274.917,301.661 275.001,301.78 275.108,301.769 C275.144,301.766 275.174,301.699 275.21,301.696 C275.21,301.696 275.51,301.443 275.695,301.297 C275.724,301.231 275.742,301.229 275.76,301.227 C275.922,301.211 276.094,301.672 276.112,301.861 L276.61,306.908 C276.635,307.16 276.796,307.335 276.958,307.319 C277.191,307.296 277.333,307.091 277.308,306.839 L276.746,301.13 C276.693,300.594 276.772,300.299 276.891,300.224 L278.204,299.044 C278.24,299.04 278.273,299.005 278.291,299.003 C278.488,298.984 278.645,299.478 278.667,299.699 L279.173,304.84 C279.198,305.092 279.36,305.267 279.521,305.251 C279.79,305.225 279.897,305.023 279.872,304.771 L279.297,298.936 C279.266,298.621 279.324,298.105 279.472,297.963 C279.621,297.821 280.074,297.458 280.074,297.458 C280.223,297.316 280.317,296.988 280.292,296.736 L280.006,293.834 C279.984,293.614 279.9,293.495 279.811,293.503 C279.757,293.509 279.739,293.51 279.691,293.579 L279.123,294.049 C278.979,294.063 278.793,293.827 278.744,293.322 L278.367,289.506 C278.339,289.222 278.39,288.452 278.557,288.309 z" fill-opacity="0" stroke="#000000" stroke-width="1" opacity="0.45"/>
    <path d="M214.758,264.384 C199.028,270.109 190.937,287.512 196.662,303.242 C202.387,318.972 219.772,327.103 235.502,321.377 C251.261,315.642 259.381,298.228 253.656,282.498 C247.93,266.768 230.517,258.648 214.758,264.384 z M233.456,315.668 C220.861,320.252 206.946,313.763 202.361,301.168 C197.777,288.572 204.266,274.657 216.861,270.073 C229.457,265.488 243.372,271.977 247.956,284.572 C252.541,297.168 246.052,311.083 233.456,315.668 z M234.095,286.39 C236.461,285.529 237.675,282.925 236.814,280.56 C235.953,278.195 233.349,276.98 230.984,277.841 C228.619,278.702 227.404,281.306 228.265,283.671 C229.126,286.037 231.73,287.251 234.095,286.39 z M214.148,293.651 C216.513,292.79 217.727,290.185 216.866,287.82 C216.006,285.455 213.401,284.241 211.036,285.102 C208.671,285.962 207.456,288.567 208.317,290.932 C209.178,293.297 211.782,294.511 214.148,293.651 z M230.863,308.543 C237.503,306.127 241.631,299.912 241.795,293.269 L212.671,303.87 C217.067,308.853 224.224,310.96 230.863,308.543 z" fill-opacity="0" stroke="#000000" stroke-width="1" opacity="0.45"/>
    <path d="M51.667,211.631 C51.988,211.631 52.286,211.564 52.507,211.465 C53.293,211.055 53.846,210.491 54.398,208.833 C54.962,207.107 56.024,206.3 57.042,205.515 C57.915,204.84 58.822,204.143 59.607,202.717 C60.193,201.655 60.514,200.494 60.514,199.465 C60.514,196.369 58.081,193.936 54.985,193.936 C51.888,193.936 49.455,196.369 49.455,199.465 L47.243,199.465 C47.243,195.119 50.638,191.724 54.985,191.724 C59.331,191.724 62.726,195.119 62.726,199.465 C62.726,200.859 62.306,202.396 61.543,203.779 C60.536,205.603 59.353,206.521 58.391,207.262 C57.495,207.948 56.854,208.446 56.5,209.529 C55.836,211.542 54.985,212.67 53.481,213.455 C52.917,213.71 52.297,213.842 51.667,213.842 C49.223,213.842 47.243,211.863 47.243,209.419 L49.455,209.419 C49.455,210.635 50.45,211.631 51.667,211.631 z M62.018,192.432 L63.589,190.861 C65.789,193.062 67.15,196.103 67.15,199.465 C67.15,202.827 65.789,205.869 63.589,208.07 L62.029,206.51 C63.821,204.708 64.938,202.219 64.938,199.465 C64.938,196.712 63.821,194.223 62.018,192.432 z M57.749,199.465 C57.749,200.992 56.511,202.23 54.985,202.23 C53.458,202.23 52.22,200.992 52.22,199.465 C52.22,197.939 53.458,196.701 54.985,196.701 C56.511,196.701 57.749,197.939 57.749,199.465 z" fill-opacity="0" stroke="#000000" stroke-width="1" opacity="0.91"/>
    <g opacity="0.87">
      <path d="M271.344,79.098 C270.694,81.525 268.199,82.965 265.773,82.315 C263.346,81.665 261.906,79.17 262.556,76.744 C263.206,74.317 265.701,72.877 268.127,73.527 C270.554,74.177 271.994,76.672 271.344,79.098 z" fill-opacity="0" stroke="#000000" stroke-width="1"/>
      <path d="M250.839,73.604 C250.189,76.031 247.695,77.471 245.268,76.821 C242.841,76.171 241.401,73.676 242.051,71.25 C242.702,68.823 245.196,67.383 247.623,68.033 C250.049,68.683 251.489,71.178 250.839,73.604 z" fill-opacity="0" stroke="#000000" stroke-width="1"/>
      <path d="M262.555,53.197 C246.386,48.864 229.776,58.479 225.443,74.648 C221.111,90.818 230.688,107.449 246.857,111.781 C263.056,116.122 279.695,106.515 284.028,90.346 C288.36,74.176 278.754,57.537 262.555,53.197 z M248.456,105.931 C235.509,102.462 227.832,89.165 231.302,76.218 C234.771,63.271 248.067,55.594 261.014,59.063 C273.962,62.532 281.638,75.829 278.169,88.776 C274.7,101.723 261.404,109.4 248.456,105.931 z M251.596,94.214 C247.261,93.052 244.176,89.683 243.06,85.648 L238.168,84.337 C238.902,90.97 243.593,96.779 250.419,98.608 C257.244,100.437 264.211,97.751 268.163,92.374 L263.271,91.063 C260.287,94 255.931,95.376 251.596,94.214 z" fill-opacity="0" stroke="#000000" stroke-width="1"/>
    </g>
    <path d="M144.812,160.527 C161.297,157.62 172.293,141.916 169.381,125.401 C166.469,108.886 150.765,97.89 134.28,100.797 C117.794,103.704 106.739,119.418 109.651,135.933 C112.563,152.448 128.296,163.439 144.812,160.527 z M135.303,106.775 C148.503,104.447 161.08,113.254 163.408,126.454 C165.735,139.654 156.929,152.231 143.729,154.559 C130.528,156.886 117.951,148.08 115.624,134.88 C113.296,121.679 122.103,109.103 135.303,106.775 z M137.614,137.346 L133.89,134.738 L131.283,138.462 L127.559,135.855 L124.951,139.578 L132.399,144.793 z M149.918,135.176 L146.195,132.569 L143.587,136.292 L151.035,141.507 L156.25,134.06 L152.526,131.452 z M136.62,114.241 C129.661,115.468 124.517,120.871 123.202,127.385 L153.724,122.003 C150.26,116.332 143.578,113.014 136.62,114.241 z" fill-opacity="0" stroke="#000000" stroke-width="1" opacity="0.85"/>
  </g>
</svg>
