<?xml version="1.0" encoding="UTF-8"?>
<!DOCTYPE svg PUBLIC "-//W3C//DTD SVG 1.1//EN" "http://www.w3.org/Graphics/SVG/1.1/DTD/svg11.dtd">
<svg version="1.1" xmlns="http://www.w3.org/2000/svg" xmlns:xlink="http://www.w3.org/1999/xlink" x="0" y="0" width="500" height="300" viewBox="0, 0, 500, 300">
  <g id="Background">
    <rect x="0" y="0" width="500" height="300" fill="#000000" fill-opacity="0"/>
  </g>
  <defs>
    <clipPath id="Clip_1">
      <path d="M-46.331,383.5 L438.669,383.5 L438.669,763.5 L-46.331,763.5 z M432.669,389.5 L432.669,757.5 L-40.331,757.5 L-40.331,389.5 L432.669,389.5 z M433.669,388.5 L-41.331,388.5 L-41.331,758.5 L433.669,758.5 L433.669,388.5 z"/>
    </clipPath>
    <filter id="Shadow_2">
      <feGaussianBlur in="SourceAlpha" stdDeviation="0"/>
      <feOffset dx="4" dy="4" result="offsetblur"/>
      <feFlood flood-color="#7F7F7F"/>
      <feComposite in2="offsetblur" operator="in"/>
    </filter>
    <clipPath id="Clip_3">
      <path d="M200.366,-3 L257.634,-3 L257.634,46.792 L200.366,46.792 z M254.634,0.002 L208.633,0.003 C205.533,-0.101 203.541,2.825 203.366,6.299 L203.542,43.792 L215.481,43.792 L215.481,11.737 L222.855,11.737 L222.855,43.792 L234.092,43.792 L234.092,11.737 L241.641,11.737 L241.641,43.792 L254.283,43.792 L254.634,0.002 z"/>
    </clipPath>
    <filter id="Shadow_4">
      <feGaussianBlur in="SourceAlpha" stdDeviation="0"/>
      <feOffset dx="2" dy="2" result="offsetblur"/>
      <feFlood flood-color="#2098F5"/>
      <feComposite in2="offsetblur" operator="in"/>
    </filter>
    <clipPath id="Clip_5">
      <path d="M201.366,-2 L256.634,-2 L256.634,45.792 L201.366,45.792 z M254.634,0.002 L208.633,0.003 C205.533,-0.101 203.541,2.825 203.366,6.299 L203.542,43.792 L215.481,43.792 L215.481,11.737 L222.855,11.737 L222.855,43.792 L234.092,43.792 L234.092,11.737 L241.641,11.737 L241.641,43.792 L254.283,43.792 L254.634,0.002 z"/>
    </clipPath>
    <filter id="Shadow_6">
      <feGaussianBlur in="SourceAlpha" stdDeviation="0"/>
      <feOffset dx="1" dy="1" result="offsetblur"/>
      <feFlood flood-color="#767676"/>
      <feComposite in2="offsetblur" operator="in"/>
    </filter>
    <linearGradient id="Gradient_1" gradientUnits="userSpaceOnUse" x1="206.5" y1="54" x2="500" y2="54">
      <stop offset="0" stop-color="#757575"/>
      <stop offset="0.521" stop-color="#AFAFAF" stop-opacity="0.648"/>
      <stop offset="1" stop-color="#FFFFFF" stop-opacity="0"/>
    </linearGradient>
  </defs>
  <g id="sw_background" display="none">
    <path d="M337.014,295.604 L495.908,133.523 L495.908,133.523 C496.062,133.365 495.871,132.921 495.48,132.531 C495.088,132.141 494.646,131.953 494.491,132.111 L335.597,294.193 C335.597,294.193 335.597,294.193 335.597,294.193 C335.442,294.35 335.634,294.794 336.025,295.184 C336.416,295.574 336.859,295.762 337.014,295.604 L337.014,295.604 M276.049,197.589 L160.775,299.786 L160.775,299.786 C160.61,299.933 160.789,300.371 161.176,300.766 C161.562,301.16 162.01,301.36 162.176,301.214 L277.45,199.016 C277.615,198.869 277.436,198.431 277.049,198.037 C276.662,197.643 276.215,197.442 276.049,197.589 L276.049,197.589 M490.743,4.983 L352.846,132.652 L352.846,132.652 C352.684,132.802 352.867,133.242 353.255,133.635 C353.643,134.028 354.089,134.225 354.251,134.075 L492.148,6.406 C492.31,6.255 492.127,5.815 491.739,5.422 C491.351,5.029 490.905,4.833 490.743,4.983 L490.743,4.983 M447.755,-0.215 L313.674,115.749 L313.674,115.749 C313.507,115.894 313.684,116.332 314.069,116.726 C314.455,117.121 314.904,117.324 315.071,117.179 C315.071,117.179 315.071,117.179 315.071,117.179 L449.152,1.215 C449.152,1.215 449.152,1.215 449.152,1.215 C449.32,1.07 449.142,0.632 448.757,0.238 C448.371,-0.157 447.922,-0.36 447.755,-0.215 L447.755,-0.215 M499.796,46.257 L333.774,203.942 L333.774,203.942 C333.613,204.094 333.799,204.535 334.188,204.928 C334.576,205.32 335.022,205.514 335.182,205.362 C335.182,205.362 335.182,205.362 335.182,205.362 L501.204,47.677 C501.204,47.677 501.204,47.677 501.204,47.677 C501.364,47.525 501.179,47.084 500.79,46.692 C500.401,46.3 499.956,46.105 499.796,46.257 L499.796,46.257 M334.003,203.898 L268.639,192.468 L268.639,192.468 C268.31,192.41 268.256,192.701 268.518,193.118 C268.78,193.534 269.259,193.919 269.588,193.976 C269.588,193.976 269.588,193.976 269.588,193.976 L334.952,205.406 C335.281,205.464 335.336,205.173 335.073,204.756 C334.811,204.339 334.332,203.955 334.003,203.898 L334.003,203.898 M336.513,198.197 L356.989,133.911 L356.989,133.911 C357.063,133.679 356.787,133.206 356.373,132.855 C355.959,132.504 355.564,132.408 355.49,132.64 L335.014,196.926 C334.94,197.159 335.216,197.631 335.63,197.982 C336.044,198.333 336.439,198.429 336.513,198.197 L336.513,198.197 M312.907,119.836 L267.875,195.341 L267.875,195.341 C267.759,195.536 267.992,195.996 268.397,196.369 C268.801,196.742 269.223,196.886 269.339,196.692 L314.371,121.187 C314.371,121.187 314.371,121.187 314.371,121.187 C314.487,120.992 314.254,120.532 313.85,120.159 C313.445,119.786 313.023,119.642 312.907,119.836 L312.907,119.836 M142.586,172.408 L42.182,257.152 L42.182,257.152 C42.013,257.295 42.188,257.731 42.573,258.127 C42.958,258.522 43.407,258.727 43.577,258.584 L143.98,173.84 C144.15,173.697 143.975,173.261 143.59,172.865 C143.205,172.47 142.755,172.265 142.586,172.408 L142.586,172.408 M403.544,-0.218 L194.487,171.442 L194.487,171.442 C194.315,171.583 194.487,172.018 194.872,172.415 C195.256,172.811 195.706,173.018 195.877,172.878 L404.935,1.218 C405.107,1.077 404.934,0.641 404.55,0.245 C404.166,-0.151 403.716,-0.358 403.544,-0.218 L403.544,-0.218 M322.782,16.985 L215.304,98.493 L215.304,98.493 C215.127,98.628 215.292,99.06 215.673,99.458 C216.055,99.857 216.508,100.071 216.685,99.936 L324.163,18.428 C324.163,18.428 324.163,18.428 324.163,18.428 C324.341,18.294 324.175,17.862 323.794,17.463 C323.412,17.065 322.959,16.851 322.782,16.985 L322.782,16.985 M195.934,172.789 L216.746,99.844 L216.746,99.844 C216.814,99.606 216.533,99.133 216.117,98.785 C215.702,98.438 215.311,98.349 215.243,98.586 C215.243,98.586 215.243,98.586 215.243,98.586 L194.43,171.531 C194.363,171.769 194.645,172.242 195.06,172.59 C195.475,172.937 195.866,173.026 195.934,172.789 L195.934,172.789 M259.89,16.99 L178.05,84.669 L178.05,84.669 C177.879,84.81 178.052,85.246 178.436,85.642 C178.82,86.038 179.27,86.245 179.441,86.104 L261.282,18.424 C261.282,18.424 261.282,18.424 261.282,18.424 C261.452,18.283 261.279,17.847 260.895,17.451 C260.511,17.055 260.061,16.848 259.89,16.99 L259.89,16.99 M215.648,98.496 L178.399,84.668 L178.399,84.668 C178.024,84.529 177.876,84.738 178.068,85.135 C178.259,85.532 178.718,85.966 179.092,86.105 C179.092,86.105 179.092,86.105 179.092,86.105 L216.342,99.933 C216.716,100.072 216.864,99.863 216.673,99.466 C216.481,99.069 216.022,98.635 215.648,98.496 L215.648,98.496 M140.529,151.923 L175.818,86.174 L175.818,86.174 C175.926,85.972 175.685,85.51 175.278,85.141 C174.872,84.772 174.455,84.636 174.346,84.838 C174.346,84.838 174.346,84.838 174.346,84.838 L139.057,150.586 C138.949,150.788 139.191,151.251 139.597,151.62 C140.004,151.989 140.421,152.124 140.529,151.923 L140.529,151.923 M194.793,171.427 L138.813,153.785 L138.813,153.785 C138.451,153.671 138.332,153.907 138.546,154.312 C138.761,154.717 139.228,155.137 139.59,155.251 L195.571,172.893 C195.932,173.007 196.052,172.771 195.837,172.366 C195.622,171.961 195.155,171.541 194.793,171.427 L194.793,171.427 M250.066,3.179 L67.101,141.963 L67.101,141.963 C66.924,142.097 67.089,142.53 67.47,142.928 C67.852,143.327 68.305,143.541 68.482,143.406 C68.482,143.406 68.482,143.406 68.482,143.406 L251.447,4.622 C251.624,4.488 251.459,4.056 251.078,3.657 C250.696,3.259 250.243,3.045 250.066,3.179 L250.066,3.179 M142.606,35.644 L84.568,71.094 L84.568,71.094 C84.375,71.212 84.521,71.635 84.895,72.039 C85.269,72.443 85.728,72.674 85.921,72.556 C85.921,72.556 85.921,72.556 85.921,72.556 L143.96,37.106 C144.153,36.988 144.006,36.565 143.633,36.161 C143.259,35.757 142.799,35.526 142.606,35.644 L142.606,35.644 M84.874,71.098 L54.506,60.776 L54.506,60.776 C54.139,60.651 54.007,60.876 54.211,61.277 C54.416,61.679 54.88,62.106 55.247,62.231 C55.247,62.231 55.247,62.231 55.247,62.231 L85.615,72.553 C85.983,72.677 86.114,72.453 85.91,72.051 C85.705,71.65 85.241,71.223 84.874,71.098 L84.874,71.098 M104.049,24.07 L51.213,60.875 L51.213,60.875 C51.029,61.003 51.187,61.432 51.566,61.832 C51.944,62.233 52.4,62.454 52.583,62.326 C52.583,62.326 52.583,62.326 52.583,62.326 L105.42,25.521 C105.603,25.393 105.445,24.964 105.067,24.564 C104.688,24.163 104.233,23.942 104.049,24.07 L104.049,24.07 M23.361,120.257 L52.146,64.962 L52.146,64.962 C52.253,64.759 52.009,64.295 51.602,63.927 C51.195,63.559 50.779,63.426 50.673,63.63 C50.673,63.63 50.673,63.63 50.673,63.63 L21.887,118.925 C21.887,118.925 21.887,118.925 21.887,118.925 C21.781,119.128 22.025,119.592 22.432,119.96 C22.839,120.328 23.255,120.461 23.361,120.257 L23.361,120.257 M64.389,138.583 L21.064,125.285 L21.064,125.285 C20.704,125.174 20.589,125.413 20.806,125.819 C21.024,126.225 21.492,126.644 21.852,126.754 C21.852,126.754 21.852,126.754 21.852,126.754 L65.178,140.053 C65.538,140.163 65.653,139.924 65.435,139.518 C65.217,139.112 64.749,138.694 64.389,138.583 L64.389,138.583 M66.814,132.885 L88.639,72.382 L88.639,72.382 C88.721,72.156 88.452,71.685 88.04,71.33 C87.627,70.976 87.226,70.871 87.145,71.096 C87.145,71.096 87.145,71.096 87.145,71.096 L65.319,131.599 C65.319,131.599 65.319,131.599 65.319,131.599 C65.238,131.825 65.507,132.296 65.919,132.651 C66.332,133.006 66.732,133.11 66.814,132.885 L66.814,132.885 M104.051,3.174 L16.468,62.007 L16.468,62.007 C16.282,62.132 16.436,62.559 16.814,62.961 C17.191,63.362 17.647,63.586 17.834,63.461 C17.834,63.461 17.834,63.461 17.834,63.461 L105.417,4.628 C105.603,4.503 105.449,4.076 105.072,3.674 C104.694,3.272 104.238,3.049 104.051,3.174 L104.051,3.174 M42.945,142.75 L-4.555,177.93 L-4.555,177.93 C-4.734,178.063 -4.571,178.494 -4.191,178.893 C-3.81,179.292 -3.356,179.508 -3.177,179.376 L44.323,144.195 C44.502,144.062 44.339,143.631 43.958,143.232 C43.578,142.833 43.124,142.617 42.945,142.75 L42.945,142.75 M355.84,132.539 L313.24,119.775 L313.24,119.775 C312.882,119.668 312.77,119.91 312.99,120.317 C313.211,120.724 313.68,121.14 314.038,121.248 L356.639,134.012 C356.639,134.012 356.639,134.012 356.639,134.012 C356.997,134.119 357.108,133.876 356.888,133.469 C356.667,133.063 356.198,132.646 355.84,132.539 L355.84,132.539" fill="#FFFFFF" opacity="0.87"/>
    <g opacity="0">
      <path d="M433.669,388.5 L433.669,758.5 L-41.331,758.5 L-41.331,388.5 L433.669,388.5 z M432.669,389.5 L-40.331,389.5 L-40.331,757.5 L432.669,757.5 L432.669,389.5 z" clip-path="url(#Clip_1)" filter="url(#Shadow_2)" fill="rgba(0,0,0,1)"/>
      <path d="M-40.831,389 L433.169,389 L433.169,758 L-40.831,758 L-40.831,389 z" fill-opacity="0" stroke="#383838" stroke-width="1"/>
    </g>
    <g display="none">
      <path d="M254.634,0.002 L254.283,43.792 L241.641,43.792 L241.641,11.737 L234.092,11.737 L234.092,43.792 L222.855,43.792 L222.855,11.737 L215.481,11.737 L215.481,43.792 L203.542,43.792 L203.366,6.299 C203.541,2.825 205.533,-0.101 208.633,0.003 L254.634,0.002 z" clip-path="url(#Clip_3)" filter="url(#Shadow_4)" fill="rgba(0,0,0,1)" display="none"/>
    </g>
  </g>
  <g id="m_logo">
    <path d="M254.634,0.002 L254.283,43.792 L241.641,43.792 L241.641,11.737 L234.092,11.737 L234.092,43.792 L222.855,43.792 L222.855,11.737 L215.481,11.737 L215.481,43.792 L203.542,43.792 L203.366,6.299 C203.541,2.825 205.533,-0.101 208.633,0.003 L254.634,0.002 z" clip-path="url(#Clip_5)" filter="url(#Shadow_6)" fill="rgba(0,0,0,1)"/>
    <path d="M206.5,53.25 L500,53.25 L500,54.75 L206.5,54.75 L206.5,53.25 z" fill="url(#Gradient_1)" opacity="0.4"/>
    <path d="M160,-121.75 L260,-121.75 L260,-72.75 L160,-72.75 L160,-121.75 z" fill="#0C95FF" display="none"/>
  </g>
</svg>
